<svg width="124" height="70" viewBox="0 0 124 70" fill="none" xmlns="http://www.w3.org/2000/svg">
<rect x="9.625" y="1.4375" width="68" height="9" rx="0.5" transform="rotate(90 9.625 1.4375)" fill="#C8D9FF" stroke="#4680FF" stroke-dasharray="2 2"/>
<rect x="123.375" y="0.5625" width="26" height="96" rx="1.5" transform="rotate(90 123.375 0.5625)" fill="#C8D9FF" stroke="#4680FF" stroke-dasharray="2 2"/>
<path d="M34.727 20.2175C34.8537 20.2175 34.9804 20.1708 35.0804 20.0708L39.427 15.7242C40.1337 15.0175 40.1337 13.8575 39.427 13.1508L35.0804 8.80418C34.887 8.61085 34.567 8.61085 34.3737 8.80418C34.1804 8.99751 34.1804 9.31751 34.3737 9.51085L38.7204 13.8575C39.0404 14.1775 39.0404 14.6975 38.7204 15.0175L34.3737 19.3642C34.1804 19.5575 34.1804 19.8775 34.3737 20.0708C34.4737 20.1642 34.6004 20.2175 34.727 20.2175Z" fill="#DC2626"/>
<line x1="107" y1="14.5" x2="42" y2="14.5" stroke="#DC2626" stroke-dasharray="2 2"/>
<path d="M116.726 8.65749C116.599 8.65749 116.473 8.70415 116.373 8.80415L112.026 13.1508C111.319 13.8575 111.319 15.0175 112.026 15.7242L116.373 20.0708C116.566 20.2642 116.886 20.2642 117.079 20.0708C117.273 19.8775 117.273 19.5575 117.079 19.3642L112.733 15.0175C112.413 14.6975 112.413 14.1775 112.733 13.8575L117.079 9.51082C117.273 9.31749 117.273 8.99749 117.079 8.80415C116.979 8.71082 116.853 8.65749 116.726 8.65749Z" fill="#DC2626"/>
<rect x="-0.5" y="-0.5" width="11" height="96" rx="0.5" transform="matrix(3.39012e-08 -1 -1 -5.63605e-08 121.875 68.0625)" fill="#C8D9FF" stroke="#4680FF" stroke-dasharray="2 2"/>
</svg>
