<svg width="129" height="56" viewBox="0 0 129 56" fill="none" xmlns="http://www.w3.org/2000/svg">
<rect x="-0.5" y="-0.5" width="55" height="35" rx="0.5" transform="matrix(3.12544e-08 -1 -1 -6.11333e-08 35 55)" fill="#EDF3FF" fill-opacity="0.2" stroke="#4680FF" stroke-dasharray="1 1"/>
<rect x="31.9971" y="8.29639" width="1.03704" height="28" transform="rotate(90 31.9971 8.29639)" fill="#7EA6FF"/>
<rect x="31.9971" y="6.22217" width="1.03704" height="28" transform="rotate(90 31.9971 6.22217)" fill="#7EA6FF"/>
<rect x="31.9971" y="4.14795" width="1.03704" height="28" transform="rotate(90 31.9971 4.14795)" fill="#7EA6FF"/>
<rect x="31.9971" y="29.0371" width="1.03704" height="28" transform="rotate(90 31.9971 29.0371)" fill="#7EA6FF"/>
<rect x="31.9971" y="26.9629" width="1.03704" height="28" transform="rotate(90 31.9971 26.9629)" fill="#7EA6FF"/>
<rect x="31.9971" y="24.8887" width="1.03704" height="28" transform="rotate(90 31.9971 24.8887)" fill="#7EA6FF"/>
<rect x="32" y="22.8149" width="1.03704" height="28" transform="rotate(90 32 22.8149)" fill="#7EA6FF"/>
<rect x="31.9971" y="10.3706" width="1.03704" height="28" transform="rotate(90 31.9971 10.3706)" fill="#7EA6FF"/>
<rect x="32" y="31.1113" width="1.03704" height="28" transform="rotate(90 32 31.1113)" fill="#7EA6FF"/>
<rect width="1.03704" height="28" transform="matrix(3.12544e-08 -1 -1 -6.11333e-08 31.9971 13.4814)" fill="#7EA6FF"/>
<rect width="1.03704" height="28" transform="matrix(3.12544e-08 -1 -1 -6.11333e-08 31.9971 34.2222)" fill="#7EA6FF"/>
<rect width="1.03704" height="28" transform="matrix(3.12544e-08 -1 -1 -6.11333e-08 31.9971 17.6294)" fill="#7EA6FF"/>
<rect width="1.03704" height="28" transform="matrix(3.12544e-08 -1 -1 -6.11333e-08 32 38.3706)" fill="#7EA6FF"/>
<rect x="32" y="14.5186" width="1.03704" height="28" transform="rotate(90 32 14.5186)" fill="#7EA6FF"/>
<rect x="31.9971" y="35.2593" width="1.03704" height="28" transform="rotate(90 31.9971 35.2593)" fill="#7EA6FF"/>
<rect x="31.9971" y="18.6665" width="1.03704" height="28" transform="rotate(90 31.9971 18.6665)" fill="#7EA6FF"/>
<rect x="31.9971" y="39.4072" width="1.03704" height="28" transform="rotate(90 31.9971 39.4072)" fill="#7EA6FF"/>
<rect x="32" y="41.4814" width="1.03704" height="28" transform="rotate(90 32 41.4814)" fill="#7EA6FF"/>
<rect x="31.9971" y="43.5557" width="1.03704" height="28" transform="rotate(90 31.9971 43.5557)" fill="#7EA6FF"/>
<rect x="31.9971" y="45.6294" width="1.03704" height="28" transform="rotate(90 31.9971 45.6294)" fill="#7EA6FF"/>
<rect x="32" y="47.7036" width="1.03704" height="28" transform="rotate(90 32 47.7036)" fill="#7EA6FF"/>
<rect x="32" y="49.7778" width="1.03704" height="28" transform="rotate(90 32 49.7778)" fill="#7EA6FF"/>
<rect x="-0.5" y="-0.5" width="42" height="87" rx="1.5" transform="matrix(3.12544e-08 -1 -1 -6.11333e-08 128 55)" fill="#EDF3FF" fill-opacity="0.4" stroke="#7EA6FF" stroke-dasharray="1 1"/>
<rect x="-0.5" y="-0.5" width="8.99999" height="87" rx="0.5" transform="matrix(3.12544e-08 -1 -1 -6.11333e-08 127.997 9)" fill="#EDF3FF" fill-opacity="0.4" stroke="#7EA6FF" stroke-dasharray="1 1"/>
</svg>
